<?xml version="1.0" encoding="UTF-8"?>
<svg width="24px" height="24px" viewBox="0 0 24 24" version="1.1" xmlns="http://www.w3.org/2000/svg" xmlns:xlink="http://www.w3.org/1999/xlink">
    <title>语音@3x</title>
    <g id="主页面" stroke="none" stroke-width="1" fill="none" fill-rule="evenodd" opacity="0.800000012">
        <g id="切图" transform="translate(-474.000000, -79.000000)">
            <g id="语音" transform="translate(474.000000, 79.000000)">
                <rect id="Rectangle" fill="#000000" opacity="0" x="0" y="0" width="24" height="24"></rect>
                <path d="M12,24 C5.3835,24 0,18.6165 0,12 C0,5.3835 5.3835,0 12,0 C18.6165,0 24,5.3835 24,12 C24,18.6165 18.6165,24 12,24 Z M12,1.5 C6.21,1.5 1.5,6.21 1.5,12 C1.5,17.7885 6.21,22.5 12,22.5 C17.7885,22.5 22.5,17.7885 22.5,12 C22.5,6.21 17.7885,1.5 12,1.5 Z M13.419,6.3975 C13.5691033,6.69067428 13.512993,7.04719869 13.2800958,7.28009582 C13.0471987,7.51299296 12.6906743,7.56910327 12.3975,7.419 C12.2582668,7.35246567 12.1460343,7.24023321 12.0795,7.101 C11.9293967,6.80782572 11.985507,6.45130131 12.2184042,6.21840418 C12.4513013,5.98550704 12.8078257,5.92939673 13.101,6.0795 C13.240592,6.14552593 13.3529741,6.25790797 13.419,6.3975 L13.419,6.3975 Z M12,15.75 C9.954,15.75 8.289,14.001 8.289,11.85 L8.289,7.65 C8.289,5.499 9.954,3.75 12,3.75 C14.046,3.75 15.711,5.5005 15.711,7.65 L15.711,11.85 C15.711,14.001 14.046,15.75 12,15.75 Z M12,5.25 C10.782,5.25 9.789,6.327 9.789,7.65 L9.789,11.85 C9.789,13.173 10.7805,14.25 12,14.25 C13.2195,14.25 14.211,13.173 14.211,11.85 L14.211,7.65 C14.211,6.327 13.218,5.25 12,5.25 Z M12,18.0555 C8.6475,18.0555 5.9205,15.396 5.9205,12.1245 L5.9205,11.385 C5.9205,10.9707864 6.25628644,10.635 6.6705,10.635 C7.08471356,10.635 7.4205,10.9707864 7.4205,11.385 L7.4205,12.1245 C7.4205,14.568 9.4755,16.5555 12,16.5555 C14.526,16.5555 16.5795,14.568 16.5795,12.1245 L16.5795,11.385 C16.5795,10.9707864 16.9152864,10.635 17.3295,10.635 C17.7437136,10.635 18.0795,10.9707864 18.0795,11.385 L18.0795,12.1245 C18.0795,15.396 15.351,18.0555 12,18.0555 Z M12,20.25 C11.5857864,20.25 11.25,19.9142136 11.25,19.5 L11.25,17.508 C11.25,17.0937864 11.5857864,16.758 12,16.758 C12.4142136,16.758 12.75,17.0937864 12.75,17.508 L12.75,19.5 C12.75,19.9142136 12.4142136,20.25 12,20.25 Z" id="Shape" fill="#FFFFFF" fill-rule="nonzero"></path>
            </g>
        </g>
    </g>
</svg>